<?xml version="1.0" encoding="UTF-8"?>
<svg xmlns="http://www.w3.org/2000/svg" xmlns:xlink="http://www.w3.org/1999/xlink" width="3873" height="3873" viewBox="0 0 3873 3873">
<defs>
<clipPath id="clip-0">
<path clip-rule="evenodd" d="M 1936.5 0 C 3006 0 3873 867 3873 1936.5 C 3873 3006 3006 3873 1936.5 3873 C 867 3873 0 3006 0 1936.5 C 0 867 867 0 1936.5 0 "/>
</clipPath>
<radialGradient id="radial-pattern-0" gradientUnits="userSpaceOnUse" cx="0" cy="0" fx="0" fy="0" r="1549.19" gradientTransform="matrix(1, 0, 0, 1, 1936.5, 1936.5)">
<stop offset="0" stop-color="rgb(33.201599%, 33.201599%, 33.201599%)" stop-opacity="1"/>
<stop offset="0.0078125" stop-color="rgb(32.876587%, 32.876587%, 32.876587%)" stop-opacity="1"/>
<stop offset="0.0195312" stop-color="rgb(32.485962%, 32.485962%, 32.485962%)" stop-opacity="1"/>
<stop offset="0.03125" stop-color="rgb(32.095337%, 32.095337%, 32.095337%)" stop-opacity="1"/>
<stop offset="0.0429688" stop-color="rgb(31.704712%, 31.704712%, 31.704712%)" stop-opacity="1"/>
<stop offset="0.0546875" stop-color="rgb(31.314087%, 31.314087%, 31.314087%)" stop-opacity="1"/>
<stop offset="0.0664062" stop-color="rgb(30.923462%, 30.923462%, 30.923462%)" stop-opacity="1"/>
<stop offset="0.078125" stop-color="rgb(30.532837%, 30.532837%, 30.532837%)" stop-opacity="1"/>
<stop offset="0.0898438" stop-color="rgb(30.142212%, 30.142212%, 30.142212%)" stop-opacity="1"/>
<stop offset="0.101562" stop-color="rgb(29.751587%, 29.751587%, 29.751587%)" stop-opacity="1"/>
<stop offset="0.113281" stop-color="rgb(29.360962%, 29.360962%, 29.360962%)" stop-opacity="1"/>
<stop offset="0.125" stop-color="rgb(28.970337%, 28.970337%, 28.970337%)" stop-opacity="1"/>
<stop offset="0.136719" stop-color="rgb(28.579712%, 28.579712%, 28.579712%)" stop-opacity="1"/>
<stop offset="0.148438" stop-color="rgb(28.189087%, 28.189087%, 28.189087%)" stop-opacity="1"/>
<stop offset="0.160156" stop-color="rgb(27.798462%, 27.798462%, 27.798462%)" stop-opacity="1"/>
<stop offset="0.171875" stop-color="rgb(27.407837%, 27.407837%, 27.407837%)" stop-opacity="1"/>
<stop offset="0.183594" stop-color="rgb(27.017212%, 27.017212%, 27.017212%)" stop-opacity="1"/>
<stop offset="0.195312" stop-color="rgb(26.626587%, 26.626587%, 26.626587%)" stop-opacity="1"/>
<stop offset="0.207031" stop-color="rgb(26.235962%, 26.235962%, 26.235962%)" stop-opacity="1"/>
<stop offset="0.21875" stop-color="rgb(25.845337%, 25.845337%, 25.845337%)" stop-opacity="1"/>
<stop offset="0.230469" stop-color="rgb(25.454712%, 25.454712%, 25.454712%)" stop-opacity="1"/>
<stop offset="0.242188" stop-color="rgb(25.064087%, 25.064087%, 25.064087%)" stop-opacity="1"/>
<stop offset="0.253906" stop-color="rgb(24.737549%, 24.737549%, 24.737549%)" stop-opacity="1"/>
<stop offset="0.261719" stop-color="rgb(24.478149%, 24.478149%, 24.478149%)" stop-opacity="1"/>
<stop offset="0.269531" stop-color="rgb(24.217224%, 24.217224%, 24.217224%)" stop-opacity="1"/>
<stop offset="0.277344" stop-color="rgb(23.956299%, 23.956299%, 23.956299%)" stop-opacity="1"/>
<stop offset="0.285156" stop-color="rgb(23.696899%, 23.696899%, 23.696899%)" stop-opacity="1"/>
<stop offset="0.292969" stop-color="rgb(23.435974%, 23.435974%, 23.435974%)" stop-opacity="1"/>
<stop offset="0.300781" stop-color="rgb(23.175049%, 23.175049%, 23.175049%)" stop-opacity="1"/>
<stop offset="0.308594" stop-color="rgb(22.915649%, 22.915649%, 22.915649%)" stop-opacity="1"/>
<stop offset="0.316406" stop-color="rgb(22.654724%, 22.654724%, 22.654724%)" stop-opacity="1"/>
<stop offset="0.324219" stop-color="rgb(22.393799%, 22.393799%, 22.393799%)" stop-opacity="1"/>
<stop offset="0.332031" stop-color="rgb(22.134399%, 22.134399%, 22.134399%)" stop-opacity="1"/>
<stop offset="0.339844" stop-color="rgb(21.873474%, 21.873474%, 21.873474%)" stop-opacity="1"/>
<stop offset="0.347656" stop-color="rgb(21.612549%, 21.612549%, 21.612549%)" stop-opacity="1"/>
<stop offset="0.355469" stop-color="rgb(21.353149%, 21.353149%, 21.353149%)" stop-opacity="1"/>
<stop offset="0.363281" stop-color="rgb(21.092224%, 21.092224%, 21.092224%)" stop-opacity="1"/>
<stop offset="0.371094" stop-color="rgb(20.831299%, 20.831299%, 20.831299%)" stop-opacity="1"/>
<stop offset="0.378906" stop-color="rgb(20.571899%, 20.571899%, 20.571899%)" stop-opacity="1"/>
<stop offset="0.386719" stop-color="rgb(20.310974%, 20.310974%, 20.310974%)" stop-opacity="1"/>
<stop offset="0.394531" stop-color="rgb(20.050049%, 20.050049%, 20.050049%)" stop-opacity="1"/>
<stop offset="0.402344" stop-color="rgb(19.790649%, 19.790649%, 19.790649%)" stop-opacity="1"/>
<stop offset="0.410156" stop-color="rgb(19.529724%, 19.529724%, 19.529724%)" stop-opacity="1"/>
<stop offset="0.417969" stop-color="rgb(19.268799%, 19.268799%, 19.268799%)" stop-opacity="1"/>
<stop offset="0.425781" stop-color="rgb(19.009399%, 19.009399%, 19.009399%)" stop-opacity="1"/>
<stop offset="0.433594" stop-color="rgb(18.748474%, 18.748474%, 18.748474%)" stop-opacity="1"/>
<stop offset="0.441406" stop-color="rgb(18.487549%, 18.487549%, 18.487549%)" stop-opacity="1"/>
<stop offset="0.449219" stop-color="rgb(18.228149%, 18.228149%, 18.228149%)" stop-opacity="1"/>
<stop offset="0.457031" stop-color="rgb(17.967224%, 17.967224%, 17.967224%)" stop-opacity="1"/>
<stop offset="0.464844" stop-color="rgb(17.706299%, 17.706299%, 17.706299%)" stop-opacity="1"/>
<stop offset="0.472656" stop-color="rgb(17.446899%, 17.446899%, 17.446899%)" stop-opacity="1"/>
<stop offset="0.480469" stop-color="rgb(17.185974%, 17.185974%, 17.185974%)" stop-opacity="1"/>
<stop offset="0.488281" stop-color="rgb(16.925049%, 16.925049%, 16.925049%)" stop-opacity="1"/>
<stop offset="0.496094" stop-color="rgb(16.665649%, 16.665649%, 16.665649%)" stop-opacity="1"/>
<stop offset="0.503906" stop-color="rgb(16.340637%, 16.340637%, 16.340637%)" stop-opacity="1"/>
<stop offset="0.515625" stop-color="rgb(15.950012%, 15.950012%, 15.950012%)" stop-opacity="1"/>
<stop offset="0.527344" stop-color="rgb(15.559387%, 15.559387%, 15.559387%)" stop-opacity="1"/>
<stop offset="0.539062" stop-color="rgb(15.168762%, 15.168762%, 15.168762%)" stop-opacity="1"/>
<stop offset="0.550781" stop-color="rgb(14.778137%, 14.778137%, 14.778137%)" stop-opacity="1"/>
<stop offset="0.5625" stop-color="rgb(14.387512%, 14.387512%, 14.387512%)" stop-opacity="1"/>
<stop offset="0.574219" stop-color="rgb(13.996887%, 13.996887%, 13.996887%)" stop-opacity="1"/>
<stop offset="0.585938" stop-color="rgb(13.606262%, 13.606262%, 13.606262%)" stop-opacity="1"/>
<stop offset="0.597656" stop-color="rgb(13.215637%, 13.215637%, 13.215637%)" stop-opacity="1"/>
<stop offset="0.609375" stop-color="rgb(12.825012%, 12.825012%, 12.825012%)" stop-opacity="1"/>
<stop offset="0.621094" stop-color="rgb(12.434387%, 12.434387%, 12.434387%)" stop-opacity="1"/>
<stop offset="0.632812" stop-color="rgb(12.107849%, 12.107849%, 12.107849%)" stop-opacity="1"/>
<stop offset="0.640625" stop-color="rgb(11.846924%, 11.846924%, 11.846924%)" stop-opacity="1"/>
<stop offset="0.648438" stop-color="rgb(11.587524%, 11.587524%, 11.587524%)" stop-opacity="1"/>
<stop offset="0.65625" stop-color="rgb(11.326599%, 11.326599%, 11.326599%)" stop-opacity="1"/>
<stop offset="0.664062" stop-color="rgb(11.065674%, 11.065674%, 11.065674%)" stop-opacity="1"/>
<stop offset="0.671875" stop-color="rgb(10.806274%, 10.806274%, 10.806274%)" stop-opacity="1"/>
<stop offset="0.679688" stop-color="rgb(10.545349%, 10.545349%, 10.545349%)" stop-opacity="1"/>
<stop offset="0.6875" stop-color="rgb(10.284424%, 10.284424%, 10.284424%)" stop-opacity="1"/>
<stop offset="0.695312" stop-color="rgb(10.025024%, 10.025024%, 10.025024%)" stop-opacity="1"/>
<stop offset="0.703125" stop-color="rgb(9.764099%, 9.764099%, 9.764099%)" stop-opacity="1"/>
<stop offset="0.710938" stop-color="rgb(9.503174%, 9.503174%, 9.503174%)" stop-opacity="1"/>
<stop offset="0.71875" stop-color="rgb(9.243774%, 9.243774%, 9.243774%)" stop-opacity="1"/>
<stop offset="0.726562" stop-color="rgb(8.982849%, 8.982849%, 8.982849%)" stop-opacity="1"/>
<stop offset="0.734375" stop-color="rgb(8.721924%, 8.721924%, 8.721924%)" stop-opacity="1"/>
<stop offset="0.742188" stop-color="rgb(8.462524%, 8.462524%, 8.462524%)" stop-opacity="1"/>
<stop offset="0.75" stop-color="rgb(8.201599%, 8.201599%, 8.201599%)" stop-opacity="1"/>
<stop offset="0.757812" stop-color="rgb(7.876587%, 7.876587%, 7.876587%)" stop-opacity="1"/>
<stop offset="0.769531" stop-color="rgb(7.485962%, 7.485962%, 7.485962%)" stop-opacity="1"/>
<stop offset="0.78125" stop-color="rgb(7.095337%, 7.095337%, 7.095337%)" stop-opacity="1"/>
<stop offset="0.792969" stop-color="rgb(6.704712%, 6.704712%, 6.704712%)" stop-opacity="1"/>
<stop offset="0.804688" stop-color="rgb(6.314087%, 6.314087%, 6.314087%)" stop-opacity="1"/>
<stop offset="0.816406" stop-color="rgb(5.987549%, 5.987549%, 5.987549%)" stop-opacity="1"/>
<stop offset="0.824219" stop-color="rgb(5.728149%, 5.728149%, 5.728149%)" stop-opacity="1"/>
<stop offset="0.832031" stop-color="rgb(5.467224%, 5.467224%, 5.467224%)" stop-opacity="1"/>
<stop offset="0.839844" stop-color="rgb(5.206299%, 5.206299%, 5.206299%)" stop-opacity="1"/>
<stop offset="0.847656" stop-color="rgb(4.946899%, 4.946899%, 4.946899%)" stop-opacity="1"/>
<stop offset="0.855469" stop-color="rgb(4.685974%, 4.685974%, 4.685974%)" stop-opacity="1"/>
<stop offset="0.863281" stop-color="rgb(4.425049%, 4.425049%, 4.425049%)" stop-opacity="1"/>
<stop offset="0.871094" stop-color="rgb(4.165649%, 4.165649%, 4.165649%)" stop-opacity="1"/>
<stop offset="0.878906" stop-color="rgb(3.840637%, 3.840637%, 3.840637%)" stop-opacity="1"/>
<stop offset="0.890625" stop-color="rgb(3.450012%, 3.450012%, 3.450012%)" stop-opacity="1"/>
<stop offset="0.902344" stop-color="rgb(3.059387%, 3.059387%, 3.059387%)" stop-opacity="1"/>
<stop offset="0.914062" stop-color="rgb(2.732849%, 2.732849%, 2.732849%)" stop-opacity="1"/>
<stop offset="0.921875" stop-color="rgb(2.471924%, 2.471924%, 2.471924%)" stop-opacity="1"/>
<stop offset="0.929688" stop-color="rgb(2.212524%, 2.212524%, 2.212524%)" stop-opacity="1"/>
<stop offset="0.9375" stop-color="rgb(1.951599%, 1.951599%, 1.951599%)" stop-opacity="1"/>
<stop offset="0.945312" stop-color="rgb(1.626587%, 1.626587%, 1.626587%)" stop-opacity="1"/>
<stop offset="0.957031" stop-color="rgb(1.300049%, 1.300049%, 1.300049%)" stop-opacity="1"/>
<stop offset="0.964844" stop-color="rgb(1.040649%, 1.040649%, 1.040649%)" stop-opacity="1"/>
<stop offset="0.972656" stop-color="rgb(0.715637%, 0.715637%, 0.715637%)" stop-opacity="1"/>
<stop offset="0.984375" stop-color="rgb(0.389099%, 0.389099%, 0.389099%)" stop-opacity="1"/>
<stop offset="0.992188" stop-color="rgb(0.1297%, 0.1297%, 0.1297%)" stop-opacity="1"/>
<stop offset="1" stop-color="rgb(0%, 0%, 0%)" stop-opacity="1"/>
</radialGradient>
</defs>
<g clip-path="url(#clip-0)">
<rect x="-387.3" y="-387.3" width="4647.6" height="4647.6" fill="url(#radial-pattern-0)"/>
</g>
<path fill-rule="evenodd" fill="rgb(100%, 100%, 99.609375%)" fill-opacity="1" d="M 1936.5 1532.398438 C 1919.898438 1532.398438 1906.5 1519 1906.5 1502.398438 L 1906.5 1350 C 1906.5 1333.398438 1919.898438 1320 1936.5 1320 C 1953.101562 1320 1966.5 1333.398438 1966.5 1350 L 1966.5 1502.398438 C 1966.5 1519 1953.101562 1532.398438 1936.5 1532.398438 Z M 1659.101562 1529.800781 C 1647.101562 1529.800781 1635.800781 1522.5 1631.101562 1510.699219 L 1573.398438 1363.398438 C 1567.398438 1348 1575 1330.5 1590.398438 1324.5 C 1605.800781 1318.5 1623.300781 1326.101562 1629.300781 1341.5 L 1687 1488.800781 C 1693 1504.199219 1685.398438 1521.699219 1670 1527.699219 C 1666.398438 1529.199219 1662.699219 1529.800781 1659.101562 1529.800781 Z M 2213.800781 1529.800781 C 2210.199219 1529.800781 2206.5 1529.101562 2202.898438 1527.699219 C 2187.5 1521.699219 2179.800781 1504.199219 2185.898438 1488.800781 L 2243.601562 1341.5 C 2249.601562 1326.101562 2267 1318.398438 2282.5 1324.5 C 2297.898438 1330.5 2305.601562 1348 2299.5 1363.398438 L 2241.800781 1510.699219 C 2237.199219 1522.601562 2225.800781 1529.800781 2213.800781 1529.800781 Z M 2633.800781 1940.601562 L 1239.101562 1940.601562 C 1116.101562 1940.601562 1016.101562 1840.601562 1016.101562 1717.699219 C 1016.101562 1503.300781 1100.199219 1301.199219 1252.800781 1148.5 C 1405.398438 995.800781 1607.5 911.800781 1821.898438 911.800781 L 2050.898438 911.800781 C 2265.300781 911.800781 2467.398438 995.898438 2620.101562 1148.5 C 2772.699219 1301.101562 2856.800781 1503.300781 2856.800781 1717.699219 C 2856.800781 1840.5 2756.800781 1940.601562 2633.800781 1940.601562 "/>
<path fill-rule="evenodd" fill="rgb(100%, 100%, 99.609375%)" fill-opacity="1" d="M 2397.898438 2961.199219 L 1475.101562 2961.199219 C 1222 2961.199219 1016.199219 2755.300781 1016.199219 2502.199219 C 1016.199219 2487.398438 1019.398438 2473.300781 1025.101562 2460.5 C 1064.601562 2497.800781 1117.800781 2520.699219 1176.199219 2520.699219 L 1284.199219 2520.699219 L 1284.199219 2523.398438 C 1284.199219 2632.898438 1373.199219 2721.898438 1482.699219 2721.898438 C 1490.699219 2721.898438 1498.699219 2721.398438 1506.601562 2720.5 C 1527.601562 2807.5 1606.101562 2872.300781 1699.5 2872.300781 C 1809 2872.300781 1897.898438 2783.300781 1897.898438 2673.800781 L 1897.898438 2520.800781 L 2054.601562 2520.800781 L 2054.601562 2582.398438 C 2054.601562 2691.898438 2143.601562 2780.898438 2253.101562 2780.898438 C 2362.601562 2780.898438 2451.601562 2691.898438 2451.601562 2582.398438 L 2451.601562 2520.800781 L 2696.898438 2520.800781 C 2755.398438 2520.800781 2808.601562 2497.898438 2848.101562 2460.601562 C 2853.898438 2473.300781 2857.101562 2487.398438 2857.101562 2502.300781 C 2856.800781 2755.300781 2650.898438 2961.199219 2397.898438 2961.199219 "/>
<path fill-rule="evenodd" fill="rgb(100%, 100%, 99.609375%)" fill-opacity="1" d="M 1051.300781 1940.601562 C 1053.101562 1938.398438 1055 1936.199219 1056.898438 1934 C 1059.601562 1936.199219 1062.300781 1938.398438 1065 1940.601562 Z M 2696.800781 2200.699219 L 1176.199219 2200.699219 C 1087.898438 2200.699219 1016.101562 2128.898438 1016.101562 2040.601562 C 1016.101562 2026.699219 1017.898438 2013.300781 1021.199219 2000.5 L 1230.300781 2000.5 C 1233.199219 2000.601562 1236.101562 2000.601562 1239.101562 2000.601562 L 2633.800781 2000.601562 C 2640.300781 2000.601562 2646.699219 2000.398438 2653 2000 L 2851.5 2000 C 2854.898438 2013 2856.699219 2026.601562 2856.699219 2040.601562 C 2856.800781 2128.898438 2785 2200.699219 2696.800781 2200.699219 "/>
<path fill-rule="evenodd" fill="rgb(100%, 100%, 99.609375%)" fill-opacity="1" d="M 1699.5 2812.300781 C 1623.199219 2812.300781 1561.101562 2750.199219 1561.101562 2673.898438 L 1561.101562 2637.601562 C 1538.800781 2653 1511.800781 2662 1482.699219 2662 C 1406.398438 2662 1344.300781 2599.898438 1344.300781 2523.601562 L 1344.300781 2460.898438 L 1176.300781 2460.898438 C 1088 2460.898438 1016.199219 2389.101562 1016.199219 2300.800781 C 1016.199219 2287.101562 1017.898438 2273.898438 1021.199219 2261.199219 L 1665 2261.199219 L 1665 2260.800781 L 2696.898438 2260.800781 C 2699.5 2260.800781 2702.101562 2260.800781 2704.699219 2260.699219 L 2851.898438 2260.699219 C 2855.199219 2273.5 2857 2287 2857 2300.800781 C 2857 2389.101562 2785.199219 2460.898438 2696.898438 2460.898438 L 2391.601562 2460.898438 L 2391.601562 2582.601562 C 2391.601562 2658.898438 2329.5 2721 2253.199219 2721 C 2176.898438 2721 2114.800781 2658.898438 2114.800781 2582.601562 L 2114.800781 2460.898438 L 1838.101562 2460.898438 L 1838.101562 2674 C 1837.898438 2750.199219 1775.800781 2812.300781 1699.5 2812.300781 "/>
</svg>
